<svg xmlns="http://www.w3.org/2000/svg" viewBox="0 0 1280 720" role="img" aria-labelledby="title desc">
  <title id="title">CoffeeMachine GUI Screenshot Placeholder</title>
  <desc id="desc">Placeholder image for the CoffeeMachine GUI screenshot in the repository README.</desc>
  <defs>
    <linearGradient id="bg" x1="0%" y1="0%" x2="100%" y2="100%">
      <stop offset="0%" stop-color="#f7f1e8"/>
      <stop offset="55%" stop-color="#efe4d3"/>
      <stop offset="100%" stop-color="#e2d1b9"/>
    </linearGradient>
    <linearGradient id="panel" x1="0%" y1="0%" x2="0%" y2="100%">
      <stop offset="0%" stop-color="#ffffff"/>
      <stop offset="100%" stop-color="#f6eee4"/>
    </linearGradient>
    <linearGradient id="machine" x1="0%" y1="0%" x2="0%" y2="100%">
      <stop offset="0%" stop-color="#7b8490"/>
      <stop offset="45%" stop-color="#4c545f"/>
      <stop offset="100%" stop-color="#1d232c"/>
    </linearGradient>
    <linearGradient id="screen" x1="0%" y1="0%" x2="0%" y2="100%">
      <stop offset="0%" stop-color="#13413e"/>
      <stop offset="100%" stop-color="#0d2526"/>
    </linearGradient>
    <linearGradient id="coffee" x1="0%" y1="0%" x2="0%" y2="100%">
      <stop offset="0%" stop-color="#deb07a"/>
      <stop offset="100%" stop-color="#5a2f18"/>
    </linearGradient>
    <filter id="shadow" x="-20%" y="-20%" width="140%" height="140%">
      <feDropShadow dx="0" dy="14" stdDeviation="18" flood-color="#5a4026" flood-opacity="0.18"/>
    </filter>
  </defs>

  <rect width="1280" height="720" fill="url(#bg)"/>

  <rect x="34" y="42" width="220" height="636" rx="28" fill="url(#panel)" filter="url(#shadow)"/>
  <circle cx="84" cy="112" r="28" fill="#a56226"/>
  <text x="84" y="122" text-anchor="middle" font-family="Segoe UI, Arial, sans-serif" font-size="28" font-weight="700" fill="#fff6ec">CM</text>
  <text x="126" y="102" font-family="Segoe UI, Arial, sans-serif" font-size="24" font-weight="700" fill="#2c2118">Digital Twin</text>
  <text x="126" y="136" font-family="Segoe UI, Arial, sans-serif" font-size="16" fill="#7e6853">Office Hot Drinks</text>

  <rect x="30" y="178" width="190" height="46" rx="18" fill="#f1dfca"/>
  <text x="48" y="208" font-family="Segoe UI, Arial, sans-serif" font-size="18" fill="#3a2b1f">Dashboard</text>
  <text x="44" y="284" font-family="Segoe UI, Arial, sans-serif" font-size="16" fill="#4f4032">Acquisto bevande</text>
  <text x="44" y="338" font-family="Segoe UI, Arial, sans-serif" font-size="16" fill="#4f4032">Stato macchina</text>
  <text x="44" y="392" font-family="Segoe UI, Arial, sans-serif" font-size="16" fill="#4f4032">Ingredienti / serbatoi</text>

  <text x="292" y="94" font-family="Segoe UI, Arial, sans-serif" font-size="18" letter-spacing="4" fill="#8b735d">COFFEE MACHINE TWIN</text>
  <text x="292" y="138" font-family="Segoe UI, Arial, sans-serif" font-size="46" font-weight="700" fill="#231a14">office-coffee-machine</text>

  <rect x="914" y="82" width="124" height="42" rx="21" fill="#b6732e"/>
  <text x="976" y="109" text-anchor="middle" font-family="Segoe UI, Arial, sans-serif" font-size="18" font-weight="700" fill="#fff8ef">Ready</text>
  <rect x="1052" y="82" width="138" height="42" rx="21" fill="#fffaf3"/>
  <text x="1121" y="109" text-anchor="middle" font-family="Segoe UI, Arial, sans-serif" font-size="16" fill="#2a211c">Credito 1,00 €</text>

  <rect x="262" y="178" width="984" height="500" rx="34" fill="url(#panel)" filter="url(#shadow)"/>
  <text x="290" y="220" font-family="Segoe UI, Arial, sans-serif" font-size="16" letter-spacing="4" fill="#8f7863">FRONT OFFICE MACHINE</text>
  <text x="290" y="258" font-family="Segoe UI, Arial, sans-serif" font-size="28" font-weight="700" fill="#241b15">Distributore bevande calde</text>

  <rect x="290" y="308" width="452" height="418" rx="36" fill="url(#machine)"/>
  <rect x="318" y="332" width="210" height="138" rx="24" fill="url(#screen)"/>
  <text x="342" y="378" font-family="Consolas, monospace" font-size="18" letter-spacing="2" fill="#82c4b7">MACHINE OS</text>
  <text x="342" y="430" font-family="Segoe UI, Arial, sans-serif" font-size="36" font-weight="700" fill="#f0faf5">Ready</text>
  <text x="342" y="470" font-family="Segoe UI, Arial, sans-serif" font-size="18" fill="#d9ede7">91.0°C / 91.0°C</text>

  <rect x="574" y="338" width="122" height="180" rx="28" fill="rgba(255,255,255,0.08)" stroke="rgba(255,255,255,0.08)"/>
  <circle cx="635" cy="386" r="34" fill="#d9dde5"/>
  <circle cx="635" cy="386" r="27" fill="#f4f7fa"/>
  <line x1="635" y1="386" x2="650" y2="372" stroke="#20252c" stroke-width="8" stroke-linecap="round"/>
  <circle cx="590" cy="452" r="8" fill="#67f0aa"/>
  <circle cx="622" cy="452" r="8" fill="#ffd266"/>
  <circle cx="654" cy="452" r="8" fill="#ff786a"/>

  <rect x="318" y="530" width="118" height="86" rx="22" fill="rgba(255,255,255,0.1)" stroke="rgba(255,255,255,0.08)"/>
  <rect x="448" y="530" width="118" height="86" rx="22" fill="rgba(255,255,255,0.1)" stroke="rgba(255,255,255,0.08)"/>
  <rect x="578" y="530" width="118" height="86" rx="22" fill="rgba(255,255,255,0.1)" stroke="rgba(255,255,255,0.08)"/>
  <text x="377" y="571" text-anchor="middle" font-family="Segoe UI, Arial, sans-serif" font-size="14" letter-spacing="2" fill="#e9ddd0">COFFEE</text>
  <text x="507" y="571" text-anchor="middle" font-family="Segoe UI, Arial, sans-serif" font-size="14" letter-spacing="2" fill="#e9ddd0">MILK</text>
  <text x="637" y="571" text-anchor="middle" font-family="Segoe UI, Arial, sans-serif" font-size="14" letter-spacing="2" fill="#e9ddd0">CHOCOLATE</text>
  <text x="377" y="602" text-anchor="middle" font-family="Segoe UI, Arial, sans-serif" font-size="20" font-weight="700" fill="#ffffff">84%</text>
  <text x="507" y="602" text-anchor="middle" font-family="Segoe UI, Arial, sans-serif" font-size="20" font-weight="700" fill="#ffffff">93%</text>
  <text x="637" y="602" text-anchor="middle" font-family="Segoe UI, Arial, sans-serif" font-size="20" font-weight="700" fill="#ffffff">88%</text>

  <rect x="318" y="642" width="378" height="118" rx="28" fill="#12161c"/>
  <rect x="408" y="664" width="198" height="16" rx="8" fill="#cdd3dc"/>
  <rect x="446" y="680" width="26" height="26" rx="8" fill="#d8dde5"/>
  <rect x="542" y="680" width="26" height="26" rx="8" fill="#d8dde5"/>
  <rect x="455" y="708" width="8" height="100" rx="4" fill="#dba464"/>
  <rect x="551" y="708" width="8" height="88" rx="4" fill="#f3ead7"/>
  <rect x="480" y="742" width="64" height="90" rx="18" fill="none" stroke="#ffffff" stroke-width="4"/>
  <rect x="488" y="804" width="48" height="18" rx="9" fill="url(#coffee)"/>
  <path d="M544 760h18a12 12 0 0 1 0 24h-18" fill="none" stroke="#ffffff" stroke-width="4"/>

  <rect x="778" y="308" width="420" height="160" rx="28" fill="#fffdf9" stroke="#efdfc9"/>
  <text x="804" y="350" font-family="Segoe UI, Arial, sans-serif" font-size="18" fill="#8b735d">Credito</text>
  <text x="804" y="404" font-family="Segoe UI, Arial, sans-serif" font-size="28" font-weight="700" fill="#281d15">1,00 €</text>
  <text x="1040" y="350" font-family="Segoe UI, Arial, sans-serif" font-size="18" fill="#8b735d">Acqua disponibile</text>
  <text x="1040" y="404" font-family="Segoe UI, Arial, sans-serif" font-size="28" font-weight="700" fill="#281d15">4760 ml</text>

  <rect x="778" y="486" width="420" height="122" rx="28" fill="#3a261a"/>
  <text x="804" y="530" font-family="Segoe UI, Arial, sans-serif" font-size="18" font-weight="700" fill="#fff0e2">Preparazione live</text>
  <rect x="804" y="550" width="340" height="14" rx="7" fill="#745748"/>
  <rect x="804" y="550" width="168" height="14" rx="7" fill="#f0a34d"/>
  <text x="804" y="594" font-family="Segoe UI, Arial, sans-serif" font-size="17" fill="#f3ddd0">Sostituisci questo placeholder con uno screenshot reale</text>

  <text x="292" y="698" font-family="Segoe UI, Arial, sans-serif" font-size="18" fill="#7f6853">Placeholder immagine README</text>
  <text x="292" y="722" font-family="Segoe UI, Arial, sans-serif" font-size="16" fill="#9b8572">Percorso consigliato: docs/images/gui-screenshot.png oppure aggiorna il README</text>
</svg>
